<?xml version="1.0" encoding="UTF-8"?>
<svg version="1.1" xmlns="http://www.w3.org/2000/svg" width="512" height="512">
<path d="M0 0 C3.48139384 0.00478767 6.96273541 -0.00782695 10.4441117 -0.01801741 C17.24176928 -0.03510285 24.039334 -0.03606688 30.83700744 -0.03080451 C36.36942944 -0.02674212 41.90182426 -0.02823073 47.43424499 -0.03355277 C48.22547124 -0.03430119 49.01669749 -0.03504961 49.83190029 -0.03582071 C51.4399356 -0.03735239 53.04797089 -0.03889074 54.65600618 -0.04043568 C69.69314153 -0.05412374 84.73022468 -0.04874923 99.7673588 -0.03725047 C113.48125434 -0.02732307 127.19501485 -0.0402568 140.90888957 -0.06418466 C155.03921338 -0.08865065 169.16947451 -0.09816511 183.29981905 -0.09153193 C191.21334162 -0.08805617 199.12676049 -0.09016216 207.04026687 -0.10778296 C213.7769982 -0.12259926 220.5135528 -0.12301875 227.25028101 -0.10571205 C230.67778524 -0.09727596 234.10471995 -0.0970885 237.53224647 -0.1103636 C272.45730623 -0.23521076 305.39865463 7.32805188 331.97168434 31.40683305 C332.52791481 31.90940629 333.08414527 32.41197954 333.65723121 32.92978227 C349.63868105 47.61605733 361.37436886 65.97201749 368.40918434 86.53183305 C368.63186988 87.17410844 368.85455543 87.81638383 369.08398902 88.47812212 C374.29541789 104.91540238 374.41818231 121.36354788 374.37851739 138.43514872 C374.37372972 141.91654255 374.38634434 145.39788413 374.3965348 148.87926042 C374.41362024 155.67691799 374.41458427 162.47448271 374.4093219 169.27215616 C374.40525951 174.80457815 374.40674812 180.33697298 374.41207016 185.86939371 C374.41281858 186.66061996 374.413567 187.45184621 374.4143381 188.26704901 C374.41586978 189.87508431 374.41740813 191.48311961 374.41895307 193.0911549 C374.43264113 208.12829025 374.42726661 223.16537339 374.41576786 238.20250752 C374.40584046 251.91640305 374.41877419 265.63016357 374.44270205 279.34403829 C374.46716804 293.4743621 374.4766825 307.60462323 374.47004932 321.73496777 C374.46657356 329.64849033 374.46867955 337.5619092 374.48630035 345.47541559 C374.50111665 352.21214692 374.50153614 358.94870152 374.48422944 365.68542973 C374.47579335 369.11293396 374.47560589 372.53986866 374.48888099 375.96739519 C374.62679088 414.54665657 364.87117684 446.88285965 337.97168434 475.40683305 C337.35937965 476.08359087 336.74707496 476.76034868 336.11621559 477.4576143 C323.30839551 491.08469793 305.40227922 500.8374518 287.84668434 506.84433305 C287.20440895 507.0670186 286.56213356 507.28970415 285.90039527 507.51913774 C269.46311501 512.73056661 253.01496951 512.85333102 235.94336867 512.81366611 C232.46197484 512.80887844 228.98063326 512.82149305 225.49925697 512.83168352 C218.7015994 512.84876895 211.90403468 512.84973299 205.10636123 512.84447061 C199.57393924 512.84040823 194.04154441 512.84189684 188.50912368 512.84721887 C187.71789743 512.84796729 186.92667118 512.84871572 186.11146838 512.84948682 C184.50343308 512.8510185 182.89539778 512.85255684 181.28736249 512.85410178 C166.25022714 512.86778985 151.213144 512.86241533 136.17600987 512.85091657 C122.46211434 512.84098918 108.74835382 512.85392291 95.0344791 512.87785076 C80.90415529 512.90231675 66.77389416 512.91183122 52.64354962 512.90519804 C44.73002706 512.90172227 36.81660819 512.90382827 28.9031018 512.92144907 C22.16637047 512.93626537 15.42981587 512.93668485 8.69308766 512.91937815 C5.26558343 512.91094207 1.83864873 512.91075461 -1.5888778 512.92402971 C-40.16813918 513.06193959 -72.50434226 503.30632556 -101.02831566 476.40683305 C-101.70507348 475.79452837 -102.38183129 475.18222368 -103.07909691 474.5513643 C-116.70618054 461.74354422 -126.45893441 443.83742793 -132.46581566 426.28183305 C-132.68850121 425.63955766 -132.91118676 424.99728227 -133.14062035 424.33554399 C-138.35204922 407.89826372 -138.47481363 391.45011822 -138.43514872 374.37851739 C-138.43036105 370.89712355 -138.44297566 367.41578198 -138.45316613 363.93440568 C-138.47025156 357.13674811 -138.4712156 350.33918339 -138.46595322 343.54150995 C-138.46189084 338.00908795 -138.46337945 332.47669312 -138.46870148 326.9442724 C-138.4694499 326.15304615 -138.47019833 325.3618199 -138.47096943 324.54661709 C-138.47250111 322.93858179 -138.47403946 321.3305465 -138.4755844 319.72251121 C-138.48927246 304.68537586 -138.48389794 289.64829271 -138.47239918 274.61115859 C-138.46247179 260.89726305 -138.47540552 247.18350254 -138.49933337 233.46962782 C-138.52379936 219.33930401 -138.53331383 205.20904288 -138.52668065 191.07869834 C-138.52320488 183.16517577 -138.52531088 175.2517569 -138.54293168 167.33825052 C-138.55774798 160.60151919 -138.55816747 153.86496459 -138.54086076 147.12823638 C-138.53242468 143.70073215 -138.53223722 140.27379744 -138.54551232 136.84627092 C-138.6834222 98.26700954 -128.92780817 65.93080646 -102.02831566 37.40683305 C-101.41601098 36.73007524 -100.80370629 36.05331743 -100.17284691 35.3560518 C-87.36502683 21.72896818 -69.45891054 11.9762143 -51.90331566 5.96933305 C-51.26104027 5.74664751 -50.61876488 5.52396196 -49.9570266 5.29452837 C-33.51974633 0.0830995 -17.07160083 -0.03966492 0 0 Z M-45.40331566 60.15683305 C-46.39343651 60.67334428 -46.39343651 60.67334428 -47.4035598 61.20029008 C-66.32160661 71.37785214 -77.74780206 87.99220042 -84.11815941 108.03183305 C-85.98372964 114.9496557 -86.17673332 121.45243934 -86.17548668 128.57464921 C-86.17916337 129.70371427 -86.18284006 130.83277932 -86.18662816 131.99605846 C-86.1976469 135.78191372 -86.20150582 139.56774151 -86.20531762 143.3536104 C-86.21105392 146.06741892 -86.21821821 148.78122337 -86.22523034 151.49502885 C-86.24495954 159.64098598 -86.25505724 167.78694429 -86.26395813 175.93291932 C-86.26834754 179.77517305 -86.27371271 183.61742541 -86.278947 187.45967805 C-86.29595705 200.24335701 -86.31044871 213.02703513 -86.31769574 225.81072366 C-86.31960543 229.12547498 -86.32152579 232.44022629 -86.32348168 235.75497758 C-86.32396542 236.57877851 -86.32444916 237.40257944 -86.32494756 238.25134404 C-86.33323851 251.58064071 -86.35856059 264.90984738 -86.39106236 278.23910479 C-86.42420616 291.94416418 -86.44215116 305.64917795 -86.44533998 319.35427761 C-86.4474985 327.04093427 -86.45615003 334.72745974 -86.48180115 342.41407716 C-86.5036086 348.96379246 -86.51150967 355.51334467 -86.50183437 362.06309216 C-86.49731815 365.3989077 -86.5012414 368.73411726 -86.51859581 372.06993043 C-86.60073757 388.8036374 -86.40856114 404.66717405 -78.27831566 419.78183305 C-77.93397484 420.44191362 -77.58963402 421.10199419 -77.23485863 421.78207719 C-67.05729657 440.700124 -50.44294829 452.12631945 -30.40331566 458.4966768 C-23.48549302 460.36224703 -16.98270937 460.55525071 -9.8604995 460.55400407 C-8.16690192 460.55951911 -8.16690192 460.55951911 -6.43909025 460.56514555 C-2.65323499 460.57616428 1.1325928 460.58002321 4.91846168 460.58383501 C7.63227021 460.58957131 10.34607465 460.59673559 13.05988014 460.60374773 C21.20583727 460.62347693 29.35179557 460.63357463 37.49777061 460.64247552 C41.34002433 460.64686493 45.18227669 460.6522301 49.02452934 460.65746439 C61.80820829 460.67447444 74.59188641 460.6889661 87.37557495 460.69621313 C90.69032626 460.69812282 94.00507758 460.70004318 97.31982887 460.70199907 C98.1436298 460.70248281 98.96743073 460.70296655 99.81619532 460.70346495 C113.145492 460.7117559 126.47469866 460.73707798 139.80395608 460.76957975 C153.50901547 460.80272355 167.21402924 460.82066855 180.91912889 460.82385737 C188.60578556 460.82601589 196.29231102 460.83466742 203.97892845 460.86031854 C210.52864374 460.88212599 217.07819596 460.89002706 223.62794344 460.88035176 C226.96375898 460.87583554 230.29896855 460.87975879 233.63478172 460.8971132 C250.36848868 460.97925496 266.23202534 460.78707853 281.34668434 452.65683305 C282.0067649 452.31249223 282.66684547 451.96815141 283.34692848 451.61337602 C302.26497528 441.43581396 313.69117073 424.82146568 320.06152809 404.78183305 C321.92709831 397.86401041 322.12010199 391.36122676 322.11885536 384.23901689 C322.12437039 382.54541931 322.12437039 382.54541931 322.12999684 380.81760764 C322.14101557 377.03175238 322.14487449 373.24592459 322.14868629 369.46005571 C322.1544226 366.74624718 322.16158688 364.03244274 322.16859901 361.31863725 C322.18832821 353.17268012 322.19842592 345.02672182 322.2073268 336.88074678 C322.21171621 333.03849306 322.21708139 329.1962407 322.22231567 325.35398805 C322.23932572 312.57030909 322.25381738 299.78663097 322.26106441 287.00294244 C322.26297411 283.68819112 322.26489447 280.37343981 322.26685035 277.05868852 C322.26733409 276.23488759 322.26781783 275.41108666 322.26831623 274.56232207 C322.27660719 261.23302539 322.30192927 247.90381873 322.33443103 234.57456131 C322.36757483 220.86950192 322.38551984 207.16448815 322.38870865 193.45938849 C322.39086717 185.77273183 322.3995187 178.08620637 322.42516983 170.39958894 C322.44697727 163.84987365 322.45487834 157.30032143 322.44520304 150.75057395 C322.44068683 147.41475841 322.44461007 144.07954884 322.46196449 140.74373567 C322.54410624 124.01002871 322.35192981 108.14649205 314.22168434 93.03183305 C313.87734352 92.37175249 313.5330027 91.71167192 313.17822731 91.03158891 C303.00066524 72.11354211 286.38631697 60.68734666 266.34668434 54.3169893 C259.42886169 52.45141908 252.92607805 52.2584154 245.80386817 52.25966203 C244.67480312 52.25598534 243.54573807 52.25230866 242.38245893 52.24852055 C238.59660367 52.23750182 234.81077587 52.2336429 231.02490699 52.2298311 C228.31109847 52.22409479 225.59729402 52.21693051 222.88348854 52.20991838 C214.73753141 52.19018918 206.5915731 52.18009147 198.44559807 52.17119059 C194.60334434 52.16680118 190.76109198 52.161436 186.91883934 52.15620172 C174.13516038 52.13919167 161.35148226 52.12470001 148.56779373 52.11745298 C145.25304241 52.11554328 141.9382911 52.11362292 138.62353981 52.11166704 C137.79973887 52.1111833 136.97593794 52.11069956 136.12717335 52.11020116 C122.79787668 52.1019102 109.46867001 52.07658812 96.1394126 52.04408636 C82.4343532 52.01094256 68.72933944 51.99299755 55.02423978 51.98980874 C47.33758312 51.98765022 39.65105765 51.97899869 31.96444023 51.95334756 C25.41472493 51.93154012 18.86517271 51.92363904 12.31542523 51.93331435 C8.97960969 51.93783056 5.64440013 51.93390732 2.30858696 51.9165529 C-14.42512001 51.83441115 -30.28865666 52.02658757 -45.40331566 60.15683305 Z " fill="#000000" transform="translate(138.0283156633377,-0.40683305263519287)"/>
<path d="M0 0 C1.88332031 0.49113281 1.88332031 0.49113281 3.8046875 0.9921875 C20.79764401 5.99871447 36.89232873 15.12266604 50 27 C50.55623047 27.50257324 51.11246094 28.00514648 51.68554688 28.52294922 C70.0184755 45.37013362 82.55739907 66.97412231 89 91 C89.33902344 92.2478125 89.67804688 93.495625 90.02734375 94.78125 C94.60060153 115.51897193 93.75036061 139.62674572 88 160 C87.82871582 160.65097656 87.65743164 161.30195313 87.48095703 161.97265625 C82.05921409 182.26382867 70.26061691 199.87817355 56 215 C55.38769531 215.67675781 54.77539062 216.35351562 54.14453125 217.05078125 C39.17993897 232.97259691 17.86618618 243.40467848 -3 249 C-4.87171875 249.50853516 -4.87171875 249.50853516 -6.78125 250.02734375 C-27.51897193 254.60060153 -51.62674572 253.75036061 -72 248 C-72.65097656 247.82871582 -73.30195313 247.65743164 -73.97265625 247.48095703 C-94.26382867 242.05921409 -111.87817355 230.26061691 -127 216 C-127.67675781 215.38769531 -128.35351562 214.77539062 -129.05078125 214.14453125 C-144.97259691 199.17993897 -155.40467848 177.86618618 -161 157 C-161.33902344 155.7521875 -161.67804688 154.504375 -162.02734375 153.21875 C-166.60060153 132.48102807 -165.75036061 108.37325428 -160 88 C-159.82871582 87.34902344 -159.65743164 86.69804687 -159.48095703 86.02734375 C-154.05921409 65.73617133 -142.26061691 48.12182645 -128 33 C-127.38769531 32.32324219 -126.77539062 31.64648438 -126.14453125 30.94921875 C-111.17993897 15.02740309 -89.86618618 4.59532152 -69 -1 C-67.7521875 -1.33902344 -66.504375 -1.67804688 -65.21875 -2.02734375 C-44.46854699 -6.60335397 -20.38704847 -5.73536352 0 0 Z M-93.625 72.625 C-109.08369214 90.51447589 -113.43339561 111.86852699 -112 135 C-109.80166919 154.09224285 -99.16505773 171.43695011 -84.81640625 183.8359375 C-66.70799249 197.75003073 -45.20787271 202.32678736 -22.671875 199.73193359 C-3.31345091 196.5637841 14.13264885 185.44469347 26 170 C38.30374991 151.67762874 42.97297896 130.47571659 39.38671875 108.5625 C35.31750513 88.7488749 23.54763239 71.09744041 6.77734375 59.8359375 C-26.0218794 39.58805852 -67.04565779 45.00775479 -93.625 72.625 Z " fill="#000000" transform="translate(292,132)"/>
<path d="M0 0 C8.01664814 4.1744348 12.20891599 9.68924797 15.0625 18.25 C15.92860557 27.70616903 14.26907558 34.02446942 9.375 42 C2.73896647 48.45668127 -4.74695177 50.61172471 -13.79296875 50.53515625 C-20.30657111 49.94448175 -26.37794636 46.93620791 -30.9375 42.25 C-36.06111704 34.24434838 -37.80248511 27.78853448 -36.9375 18.25 C-34.79852219 10.83561578 -31.11181004 5.33714746 -24.375 1.5 C-16.69479167 -2.59265739 -8.15918685 -3.49679437 0 0 Z " fill="#000000" transform="translate(394.9375,103.75)"/>
</svg>
